<?xml version="1.0" encoding="UTF-8"?>
<svg width="729px" height="813px" viewBox="0 0 729 813" version="1.1" xmlns="http://www.w3.org/2000/svg" xmlns:xlink="http://www.w3.org/1999/xlink">
    <!-- Generator: Sketch 50.2 (55047) - http://www.bohemiancoding.com/sketch -->
    <title>Candles White logo</title>
    <desc>Created with Sketch.</desc>
    <defs></defs>
    <g id="Candles-White-logo" stroke="none" stroke-width="1" fill="none" fill-rule="evenodd">
        <path d="M728.669983,158.381075 L601.264796,256.450704 C595.746367,249.281548 589.835741,242.417674 583.562814,235.892792 L699.466153,124.465014 C709.81261,135.227042 719.56317,146.550142 728.669983,158.381075 Z M660.96406,89.2282088 L560.220195,214.529475 C553.171999,208.862633 545.819772,203.588079 538.198257,198.732532 L624.585843,63.1341582 C637.182523,71.1593044 649.327043,79.8718935 660.96406,89.2282088 Z M578.787615,37.9451457 L510.54647,183.522891 C502.390706,179.699788 494.02687,176.329749 485.48754,173.430049 L537.183899,21.1893835 C551.366391,26.0053318 565.253192,31.6007383 578.787615,37.9451457 Z M486.581081,7.59504813 L455.018633,165.245122 C446.201976,163.479977 437.261009,162.196859 428.220887,161.406062 L442.231708,1.23917759 C457.170263,2.54594847 471.970561,4.66993844 486.581081,7.59504813 Z M390.194287,0 L396.531239,160.653593 C387.440059,161.012193 378.435389,161.86424 369.540667,163.200324 L345.657904,4.20552102 C360.362181,1.99677741 375.224194,0.590492615 390.194287,0 Z M294.519343,15.3061528 L338.722268,169.888931 C330.049355,172.368949 321.534635,175.325912 313.209461,178.744288 L252.140308,30.0153655 C265.965917,24.338472 280.110982,19.4262216 294.519343,15.3061528 Z M205.122029,52.976997 L284.851817,192.593954 C277.009295,197.072512 269.416436,201.982997 262.108124,207.300574 L167.514343,77.2938413 C179.591597,68.5063495 192.146204,60.3869834 205.122029,52.976997 Z M127.322876,110.675097 L237.751679,227.53062 C231.17483,233.745761 224.942428,240.317704 219.08581,247.213742 L96.5383631,143.137534 C106.198621,131.762793 116.476714,120.92475 127.322876,110.675097 Z M65.376401,184.98599 L200.214987,272.55476 C195.295886,280.129203 190.798858,287.966677 186.746606,296.032483 L43.080042,223.854563 C49.7930358,210.492682 57.2379583,197.517582 65.376401,184.98599 Z M22.6469666,272.073124 L174.434786,325.084366 C171.469452,333.575047 168.973247,342.235743 166.959963,351.036655 L10.2300254,315.183335 C13.5736342,300.567015 17.7207188,286.178517 22.6469666,272.073124 Z M1.87910704,366.842731 L161.919913,382.226957 C161.161646,390.11514 160.779205,398.077348 160.778524,406.091964 C160.778523,407.221328 160.785717,408.324077 160.800196,409.428308 L0.0354906108,411.536243 C0.0117767981,409.727674 -1.77056182e-06,407.922237 0,406.085073 C0.00111701398,392.929374 0.6299333,379.837779 1.87910704,366.842731 Z M4.03651818,463.552412 L163.224922,440.996128 C164.494647,449.957067 166.253873,458.803791 168.491126,467.509279 L12.7726489,507.527898 C9.05899741,493.07752 6.14053676,478.401284 4.03651818,463.552412 Z M29.073057,557.309229 L178.30396,497.477201 C181.661066,505.850375 185.479947,514.027952 189.741259,521.976251 L48.0426672,597.944949 C40.9787957,584.76925 34.6443758,571.205013 29.073057,557.309229 Z M75.6403866,642.310076 L206.425769,548.795812 C211.684384,556.150305 217.346133,563.213897 223.382343,569.952373 L103.625808,677.228213 C93.6668458,666.110605 84.3229583,654.45318 75.6403866,642.310076 Z M140.904883,713.835959 L245.986382,592.149426 C252.834515,598.063081 260.000785,603.595866 267.45073,608.719738 L176.340489,741.191086 C164.035876,732.728303 152.2058,723.594782 140.904883,713.835959 Z M221.134591,767.936976 L294.518401,624.882615 C302.539291,628.997159 310.782228,632.665499 319.213873,635.869003 L262.110597,786.16521 C248.113505,780.847179 234.435861,774.760242 221.134591,767.936976 Z M312.208051,801.56195 L349.371888,645.137581 C358.117763,647.215456 366.999021,648.813756 375.989266,649.921432 L356.32863,809.493338 C341.443306,807.659337 326.718883,805.009483 312.208051,801.56195 Z M408.458848,812.555382 L407.673733,651.778774 C416.797253,651.734222 425.842807,651.195448 434.788148,650.171339 L453.075445,809.906459 C438.322313,811.595474 423.434038,812.482254 408.458848,812.555382 Z M504.546676,800.621223 L465.841552,644.571079 C474.601534,642.398341 483.215297,639.74452 491.652487,636.623982 L547.424844,787.419135 C533.409093,792.602932 519.097828,797.0121 504.546676,800.621223 Z M595.215818,766.135664 L520.455871,623.795634 C528.449307,619.597315 536.207181,614.958309 543.694677,609.902052 L633.672746,743.144992 C621.290061,751.506937 608.452225,759.183627 595.215818,766.135664 Z M675.021374,711.179159 L568.74041,590.538823 C575.53061,584.556835 581.989585,578.205326 588.085049,571.516148 L706.924164,679.807416 C696.87163,690.839093 686.220339,701.313165 675.021374,711.179159 Z" id="Oval-Copy-4" fill="#FFFFFF" fill-rule="nonzero"></path>
    </g>
</svg>